<?xml version="1.0" encoding="UTF-8" standalone="no"?>
<svg
   xmlns:dc="http://purl.org/dc/elements/1.1/"
   xmlns:cc="http://creativecommons.org/ns#"
   xmlns:rdf="http://www.w3.org/1999/02/22-rdf-syntax-ns#"
   xmlns:svg="http://www.w3.org/2000/svg"
   xmlns="http://www.w3.org/2000/svg"
   viewBox="0 0 113.17333 120.29333"
   height="120.29333"
   width="113.17333"
   xml:space="preserve"
   id="svg2"
   version="1.1"><metadata
     id="metadata8"><rdf:RDF><cc:Work
         rdf:about=""><dc:format>image/svg+xml</dc:format><dc:type
           rdf:resource="http://purl.org/dc/dcmitype/StillImage" /></cc:Work></rdf:RDF></metadata><defs
     id="defs6" /><g
     transform="matrix(1.3333333,0,0,-1.3333333,0,120.29333)"
     id="g10"><g
       transform="scale(0.1)"
       id="g12"><path
         id="path14"
         style="fill:#231f20;fill-opacity:1;fill-rule:nonzero;stroke:none"
         d="m 437.023,316.273 c 0.403,-0.222 -0.046,-0.632 0.149,-0.769 0.203,-0.156 0.535,-0.129 0.789,0.066 -0.379,0.071 -0.027,0.34 -0.137,0.496 -0.215,0.356 -0.547,0.102 -0.801,0.207" /><path
         id="path16"
         style="fill:#ffffff;fill-opacity:1;fill-rule:nonzero;stroke:none"
         d="M 425.277,898.926 C 310.727,795.105 161.156,798.211 7.55078,817.527 -25.582,441.227 103.305,69.8164 422.836,2.55469 745.422,67.2227 872.816,437.926 841.711,814.395 698.723,799.98 550.539,794.129 425.277,898.926" /><path
         id="path18"
         style="fill:#ffffff;fill-opacity:1;fill-rule:nonzero;stroke:none"
         d="M 425.277,898.926 C 310.727,795.105 161.156,798.211 7.55078,817.527 -25.582,441.227 103.305,69.8164 422.836,2.55469 745.422,67.2227 872.816,437.926 841.711,814.395 698.723,799.98 550.539,794.129 425.277,898.926" /><path
         id="path20"
         style="fill:none;stroke:#0a0a09;stroke-width:5;stroke-linecap:butt;stroke-linejoin:miter;stroke-miterlimit:4;stroke-dasharray:none;stroke-opacity:1"
         d="M 425.277,898.926 C 310.727,795.105 161.156,798.211 7.55078,817.527 -25.582,441.227 103.305,69.8164 422.836,2.55469 745.422,67.2227 872.816,437.926 841.711,814.395 698.723,799.98 550.539,794.129 425.277,898.926 Z" /><path
         id="path22"
         style="fill:#0a0a09;fill-opacity:1;fill-rule:nonzero;stroke:none"
         d="M 424.758,862.242 C 329.27,784.586 178.664,765.313 34.8477,786.332 13.4023,443.18 125.324,107.875 421.848,30.5039 718.781,106.266 833.832,440.094 814.25,783.348 667.523,766.836 519.816,784.07 424.758,862.242" /><path
         id="path24"
         style="fill:#ffffff;fill-opacity:1;fill-rule:nonzero;stroke:none"
         d="m 538.91,270.758 c -3.476,-10.559 -8.906,-21.02 -12.082,-25.727 0,0 4.453,-8.047 5.996,-15.933 23.059,-17.754 48.496,-34.414 113.235,-18.633 C 634.523,214 562.23,250.016 543.625,267.57 l -4.715,3.188" /><path
         id="path26"
         style="fill:#ffffff;fill-opacity:1;fill-rule:nonzero;stroke:none"
         d="m 300.453,260.836 c 0,0 10.809,-17.148 14.61,-19.316 0,0 4.656,-4.141 2.917,-18.696 -26.023,-19.469 -89.609,-27.359 -121.863,-14.695 0,0 77.801,30.676 99.317,50.051 l 5.019,2.656" /><path
         id="path28"
         style="fill:#ffffff;fill-opacity:1;fill-rule:nonzero;stroke:none"
         d="m 502.016,266.984 c -1.504,-1.621 -2.805,-3.316 -4.446,-4.839 -0.586,-0.547 -1.074,-1.528 -1.824,-2.09 -1.808,-1.367 -3.418,-2.637 -5.371,-3.887 -1.992,-1.27 -3.41,-4.727 -1.711,-6.25 1.457,-1.309 4.27,-2.719 6.086,0.035 0.984,1.477 3.094,1.781 4.277,2.832 3.348,2.992 5.77,6.977 6.641,11.582 0.312,1.621 -1.055,2.387 -2.141,3.52 0.274,-1.289 -1.453,-0.903 -1.562,-1.875 0.019,0.332 0.039,0.64 0.051,0.972" /><path
         id="path30"
         style="fill:#ffffff;fill-opacity:1;fill-rule:nonzero;stroke:none"
         d="m 337.004,262.301 c 1.855,-5.156 6.191,-7.363 7.492,-9.438 2.051,-3.297 3.008,-6.773 5,-9.922 -3.391,-1.929 -5.988,-7.398 -9.316,-5.742 -1.68,0.824 -2.188,4.414 -3.196,6.938 -2.546,6.386 1.016,11.668 0.02,18.164 0.168,0 -0.156,0.015 0,0 v 0" /><path
         id="path32"
         style="fill:#c8c7c7;fill-opacity:1;fill-rule:nonzero;stroke:none"
         d="m 399.016,627.441 c -38.993,0 -79.286,-9.75 -91.407,-47.039 0,0 -20.535,-75.078 -19.207,-86.851 -10.91,-3.321 -32.941,-13.891 -26.328,-73.789 0,0 23.633,-107.641 34.239,-128.696 l 6.816,-0.371 c 0,0 6.199,6.504 5.066,-14.898 0,0 -3.582,-12.5 7.746,-19.942 0,0 4.395,18.043 7.325,-9.164 0.566,-26.382 8.867,-54.16 47.449,-81.558 0,0 18.195,11.726 20.187,12.597 0,0 -26.797,10.196 -40.625,25.567 0,0 3.887,-18.75 -11.582,2.558 0,0 -7.433,7.223 -11.691,56.258 0.363,6.809 -0.566,7.84 -6.043,14.961 -21.289,43.367 -38.184,143.418 1.785,180.457 42.109,2.68 142.629,4.922 180.344,-1.953 15.43,-3.726 23.008,-8.687 26.492,-35.23 7.512,-33.575 2.52,-100.688 -14.941,-154.426 0,0 -2.567,-11.582 -8.711,-17.117 -5.028,-2.657 -23.262,-15.371 -32.071,-34.438 -3.281,-6.656 -10.457,-13.101 -22.441,-18.34 -12.09,-7.168 -56.621,-18.496 -39.09,-37.964 0,0 -5.058,-2.286 -13.976,-4.747 0,0 2.363,-10.863 7.336,-9.171 0,0 8.964,3.425 12.187,9.121 26.191,-3.328 59.695,2.722 80.184,21.164 8.097,5.429 23.125,12.539 24.882,26.629 0,0 8.664,16.14 -5.535,43.234 5.379,9.488 14.141,27.574 12.91,41.309 0.516,0.757 45.84,52.695 51.329,124.121 0,0 -6.348,42.07 -4.551,1.953 0,0 -0.559,-7.016 -4.551,-27.309 0,0 -8.477,-31.121 -3.898,-1.297 0,0 1.691,47.414 -3.895,89.7 0,0 -1.418,15.742 7.148,-7.153 1.153,-4.219 -1.3,5.199 -1.3,5.199 0,0 4.121,-28.91 5.195,-8.457 -5.195,24.039 -6.504,29.903 -13.652,32.5 -4.442,35.352 -17.547,69.539 -17.547,69.539 l -3.242,-3.894 c 11.992,-33.379 19.812,-144.301 16.894,-176.137 0,0 -7.687,-62.73 -14.297,-58.496 0,0 10.645,105.863 5.867,145.156 -2.253,49.907 -9.433,61.996 -12.304,81.672 0,0 -15.809,41.184 0.586,18.848 l 1.953,1.301 c -13.992,35.847 -35.098,53.293 -98.789,54.593 l 8.703,-155.765 -57.285,-0.196 6.336,155.961" /><path
         id="path34"
         style="fill:#ffffff;fill-opacity:1;fill-rule:nonzero;stroke:none"
         d="m 326.516,424.098 c -0.293,0.015 12.773,2.168 12.578,2.168 14.101,-0.063 47.304,0.156 54.484,-2.676 3.68,-1.445 10.137,1.933 13.34,3.203 11.973,4.742 13.465,5.77 26.082,13.277 2.063,1.235 16.914,10.176 14.219,10.473 -34.461,3.77 -104.746,3.34 -118.621,-0.805 0,0 -5.852,-0.972 -7.5,-2.808 -6.563,-7.325 -5.176,-7.91 -9.739,-18.039 2.969,6.593 -1.562,-8.328 -1.961,-9.657 -1.183,-3.847 5.399,-3.656 6.727,-1.816 2.422,3.348 2.891,7.187 10.391,6.68" /><path
         id="path36"
         style="fill:#ffffff;fill-opacity:1;fill-rule:nonzero;stroke:none"
         d="m 518.813,317.438 c -1.575,-7.415 -2.512,-15.098 -5.071,-22.192 -2.371,-6.543 -3.515,-11.031 -11.687,-17.93 -1.692,14.243 -5.715,21.293 -4.942,26.625 -5.488,-2.148 -4.746,-10.312 -5.332,-17.785 -0.929,-11.902 2.293,-20.644 1.543,-17.16 0.36,-1.656 -4.14,-4.937 -5.761,-7.516 -5.098,-8.07 -10.735,-15.585 -17.657,-22.113 -1.035,-0.972 -1.289,-2.945 -2.375,-3.418 -3.816,-1.636 -4.812,-4.121 -7.051,-6.715 -1.824,-2.129 -6.667,-3.808 -9.179,-5.175 -1.582,-0.879 -6.375,-2.168 -7.676,-2.446 -2.898,-0.586 -5.535,-0.484 -9.91,-0.254 -4.231,0.215 -10,5.422 -14.551,6.528 -13.254,3.242 -16.348,-8.75 -36.953,-4.321 -8.496,1.829 -10.207,7.512 -15.52,13.52 -1.035,1.172 -6.101,7.32 -6.894,8.184 2.148,-2.305 -14.129,13.007 -17.246,24.8 -3.477,13.203 -1.688,14.258 -0.125,25.395 0.586,4.18 -0.207,14.668 -4.074,15.351 -3.614,-3.711 -1.004,-6.25 -2.079,-11.601 -1.035,-5.219 3.778,-5.434 0.079,-17.094 -1.055,-3.34 -2.872,-2.516 -3.918,-0.281 -3.856,8.293 -1.864,26.262 -10.586,33.269 -2.012,1.606 -2.129,6.465 -0.438,7.739 2.664,2.011 5.313,-1.172 8.77,-0.371 0.605,0.132 0.234,4.336 -0.235,4.882 -2.863,3.36 -9.199,1.981 -9.14,2.442 0.84,6.773 0.711,12.871 -1.594,16.187 -3.184,4.555 -7.84,5.332 -9.734,9.785 -4.016,9.418 -2.637,14.79 -3,17.25 -0.489,3.321 -1.289,8.711 -0.332,12.207 -0.965,-0.214 -0.594,7.813 -0.547,8.336 0.597,5.879 1.64,5.547 2.539,11.094 0.176,3.403 8.586,5.403 8.664,-2.422 -2.063,-10.3 1.004,-18.418 1.277,-28.828 0.031,-1.25 2.082,-2.449 3.469,-2.847 22.683,-6.504 39.668,-4.004 62.226,-3.555 6.036,0.113 9.668,7.652 10.957,13.57 2.137,9.746 2.149,13.07 2.227,23.801 1.133,2.859 3.77,2.082 5.84,-0.305 3.867,-4.453 0.867,-6.109 1.824,-11.812 0.742,-4.438 -4.969,-10.957 -4.969,-10.957 0.645,-0.039 -1.933,-15.039 -1.281,-15.071 1.164,-0.066 -0.867,-13.464 -1.18,-13.117 -0.871,-7.281 4.149,-4.605 3.387,-9.937 -0.125,-2.446 -1.375,-5.821 -1.308,-6.274 0.722,-4.922 -10.262,-3.863 -8.504,-3.953 -2.434,0.125 -4.328,1.199 -4.231,3.156 0.149,2.774 -0.613,4.852 -0.586,7.34 -5.359,0.293 -3.144,-4.019 -3.437,-9.566 -0.125,-2.442 1.476,-4.492 5.586,-5.18 4.355,-0.719 4.816,-1.226 6.847,0.117 1.055,0.727 4.512,1.489 5.047,3.164 2.024,-7.925 4.406,-9.019 10.266,-8.843 2.508,0.078 8.25,-0.918 10.508,4.824 0.566,1.441 4.461,1.226 5.019,2.652 10.145,-1.988 3.934,-6.133 16.238,-2.176 3.711,1.18 6.739,6.524 3.536,10.75 -0.379,0.508 -2.371,0.469 -2.411,0.2 -1.347,-10.586 -5.5,-7.461 -9.472,-7.231 -13.059,0.766 -6.016,6.176 -17.09,-0.074 -1.309,-0.742 -5.195,-6.074 -10.352,-1.895 -6.992,6.231 0.567,10.704 1.414,17.5 0.762,6.168 0.469,25.582 0.176,31.231 -0.683,13.301 2.715,5.215 4.973,10.957 -1.906,-0.473 -0.891,16.289 -1.055,17.144 -1.152,5.918 -8.125,3.625 -9.941,5.879 0,0 -0.813,4.668 0.254,4.883 7.89,1.528 17.879,5.883 25.066,9.414 16.602,8.164 25.949,13.242 33.984,18.227 2.383,1.48 3.36,4.629 4.641,4.644 15.137,0.176 29.734,3.235 43.192,-4.234 9.406,-5.219 11.679,-10.371 14.14,-19.277 -1.082,-0.176 0.899,-9.512 0.93,-10.317 0.176,-5.855 -0.129,-16.558 -0.059,-19.508 0.457,-19.336 1.563,-25.961 -1.074,-38.996 -0.02,-0.117 -2.031,-4.773 -2.687,-4.734 -1.59,-2.363 -4.336,-5.859 -7.586,-8.598 -1.028,-0.855 -0.586,-3.711 0.136,-3.218 2.02,1.367 5.965,2.128 8.965,3.433 -0.098,-8.277 -0.949,-18.008 -2.89,-27.183" /><path
         id="path38"
         style="fill:#0a0a09;fill-opacity:1;fill-rule:nonzero;stroke:none"
         d="m 492.445,410.094 c 0.352,-0.012 -5.156,4.179 -9.894,6.875 -2.176,1.226 -11.231,-4.922 -13.446,-5.156 -9.328,-0.977 -14.687,-1.45 -24.531,-1.704 -2.414,-0.054 -5.898,-0.093 -7.344,2.153 -0.898,1.386 -0.753,4.058 0.282,5.386 2.98,3.813 8.808,-2.683 12.394,6.973 -0.019,-0.035 11.121,0.461 14.532,0.617 11.648,0.535 28.816,0.442 27.285,-0.945 1.406,1.27 3.652,-5.039 5.996,-6.66 4.383,-3.028 3.133,0.984 5.097,-5.149 -1.347,1.282 1.219,-3.703 -0.128,-2.429 -0.04,-0.649 -0.829,-3.535 -1.18,-3.852 -0.352,-0.308 -4.649,1.235 -5.305,1.25 0.332,0 -4.09,2.656 -3.758,2.641" /><path
         id="path40"
         style="fill:#0a0a09;fill-opacity:1;fill-rule:nonzero;stroke:none"
         d="m 436.391,402.301 c 6.797,3.965 -5.098,5.152 -3,-6.543 -0.184,1.094 2.218,0.351 2.422,0.879 0.312,0.801 0.468,3.726 0.578,5.664" /><path
         id="path42"
         style="fill:#0a0a09;fill-opacity:1;fill-rule:nonzero;stroke:none"
         d="m 429.621,375.816 c 1.543,-7.89 0.137,-6.836 -0.742,-14.113 -0.781,-6.594 4.844,-8.113 4.844,-0.742 0,27.82 -1.875,20.105 -4.102,14.855" /><path
         id="path44"
         style="fill:#0a0a09;fill-opacity:1;fill-rule:nonzero;stroke:none"
         d="m 507.102,335.973 c -0.653,-1.528 -1.668,-1.621 -2.938,-2.453 -0.957,-0.633 -2.031,-2.024 -1.543,-3.067 0.254,-0.535 1.406,-1.062 2.176,-1.047 0.832,0.024 1.613,1.02 1.894,1.762 0.559,1.441 0.332,3.184 0.411,4.805" /><path
         id="path46"
         style="fill:#0a0a09;fill-opacity:1;fill-rule:nonzero;stroke:none"
         d="m 437.094,346.129 c 0.945,-0.063 1.765,0.672 1.816,1.617 0.047,0.957 -0.683,1.762 -1.633,1.82 -0.957,0.055 -1.765,-0.683 -1.816,-1.64 -0.047,-0.942 0.684,-1.758 1.633,-1.797" /><path
         id="path48"
         style="fill:#0a0a09;fill-opacity:1;fill-rule:nonzero;stroke:none"
         d="m 498.605,392.426 c -2.507,-1.258 -4.707,-0.985 -7.109,-2.332 3.75,2.09 -20.273,3.418 -11.199,2.578 -6.457,0.601 -11.731,1.988 -18.449,1.949 0.019,0.332 -1.27,-0.992 -1.25,-0.66 -3.34,-0.781 -5.086,1.797 -7.586,3.418 -1.75,1.109 -3.301,-0.063 -4.914,0.164 0.343,0.637 -0.575,1.047 -0.332,1.437 0.41,0.665 1.554,1.012 1.984,1.075 2.891,0.371 6.258,0.117 9.023,1.074 9.727,3.379 17.313,-1.25 27.286,-0.938 3.132,0.094 7.449,0.719 10.39,-1.347 0.594,-0.434 0.586,-1.446 1.024,-1.778 1.308,-0.976 3.652,-0.382 4.414,-1.195 1.562,-1.656 -1.543,-2.574 -3.282,-3.445" /><path
         id="path50"
         style="fill:#0a0a09;fill-opacity:1;fill-rule:nonzero;stroke:none"
         d="m 489.055,378.316 c -0.625,0.133 -0.867,0.957 -1.407,0.957 -5.671,0 -10.742,1.461 -15.976,3.7 -1.785,0.769 -3.516,-0.633 -5.379,-0.868 -2.461,-0.332 -5.051,0.68 -7.18,-0.082 -1.55,-0.543 -2.898,-2.878 -1.582,-3.613 2.004,-1.109 5.266,-0.933 7.891,0.832 3.058,2.051 6.914,1.375 10.5,0.535 0.957,-0.211 1.914,-0.879 2.91,-0.836 3.484,0.133 6.797,-0.863 10.223,-0.625" /><path
         id="path52"
         style="fill:#0a0a09;fill-opacity:1;fill-rule:nonzero;stroke:none"
         d="m 452.953,387.531 c 0.117,0.785 -1.348,0.571 -0.91,1.504 -2.371,0.688 -4.559,-1.441 -6.824,-0.508 -1.281,0.508 -2.063,1.86 -3.321,2.512 -0.097,-1.848 -0.781,-4.402 0.821,-5.105 3.222,-1.411 6.738,2.675 10.164,0.625 0.019,0.32 0.012,0.64 0.07,0.972" /><path
         id="path54"
         style="fill:#ffffff;fill-opacity:1;fill-rule:nonzero;stroke:none"
         d="m 260.102,530.68 -21.114,-20.864 c 0,0 18.496,-28.796 20.879,-29.898 3.789,7.129 10.176,17.027 18.496,17.574 l 1.532,10.664 -19.793,22.524" /><path
         id="path56"
         style="fill:#ffffff;fill-opacity:1;fill-rule:nonzero;stroke:none"
         d="m 181.977,613.844 11.218,-0.102 c 14.766,-16.383 51.301,-64.195 51.301,-64.195 l -5.586,-13.371 c 14.285,11.941 22.508,19.804 27.793,27.336 10.352,11.172 19.649,2.383 11.453,-4.992 -5.429,-10.457 -31.433,-31.536 -48.308,-46.282 -48.164,-43.34 -139.2191,25.871 -62.981,92.641 l 15.11,8.965" /><path
         id="path58"
         style="fill:#0a0a09;fill-opacity:1;fill-rule:nonzero;stroke:none"
         d="m 167.453,588.258 c 8.352,10.293 15.86,4.527 9.199,-1.465 -5.027,-4.531 4.426,-14.727 10.578,-12.27 4.891,1.946 10.731,-5.855 9.305,-8.789 -3.789,-7.75 3.469,-15.847 9.074,-13.164 3.086,1.477 9.559,-3.648 7.371,-8.203 -3.32,-6.89 3.508,-14.683 11.145,-10.84 8.172,4.145 3.543,-7.007 3.543,-7.007 -41.375,-34.922 -101.816,31.699 -60.215,61.738" /><path
         id="path60"
         style="fill:#ffffff;fill-opacity:1;fill-rule:nonzero;stroke:none"
         d="m 171.789,603.41 c 7.324,-0.387 13.566,5.238 13.945,12.563 0.391,7.312 -5.234,13.558 -12.546,13.937 -7.325,0.391 -13.567,-5.234 -13.958,-12.551 -0.378,-7.316 5.247,-13.554 12.559,-13.949" /><path
         id="path62"
         style="fill:#0a0a09;fill-opacity:1;fill-rule:nonzero;stroke:none"
         d="m 176.215,624.887 c 8.066,-4.332 1.101,-16.16 -4.199,-14.91 -5.715,1.343 -1.34,2.515 -1.34,2.515 5.332,-0.777 10.176,7.762 3.488,10.555 -2.539,1.058 2.051,1.84 2.051,1.84" /><path
         id="path64"
         style="fill:#ffffff;fill-opacity:1;fill-rule:nonzero;stroke:none"
         d="m 655.324,613.41 -11.211,-0.445 C 629.875,596.109 594.855,547.199 594.855,547.199 L 600.852,534 c -14.657,11.484 -23.125,19.09 -28.641,26.453 -10.684,10.852 -19.707,1.77 -11.289,-5.344 5.762,-10.293 32.402,-30.543 49.746,-44.746 49.48,-41.812 138.504,34.477 60.215,98.828 l -15.559,4.219" /><path
         id="path66"
         style="fill:#0a0a09;fill-opacity:1;fill-rule:nonzero;stroke:none"
         d="m 672.238,593.727 c -6.941,7.207 -12.527,3.101 -10.574,-2.911 2.207,-6.742 -6.172,-19.535 -10.363,-16.875 -5.535,3.512 -11.102,-5.761 -9.024,-9.062 3.469,-5.527 -3.203,-16.43 -8.652,-13.457 -3.008,1.641 -9.18,-4.375 -7.117,-8.418 3.445,-6.762 -3.938,-12.934 -10.801,-11.184 -8.867,2.278 -3.312,-7.121 -3.312,-7.121 42.441,-33.609 102.363,40.317 59.843,69.028" /><path
         id="path68"
         style="fill:#ffffff;fill-opacity:1;fill-rule:nonzero;stroke:none"
         d="m 666.008,607.57 c -7.305,-0.601 -13.895,0.547 -14.512,7.844 -0.605,7.301 4.992,17.992 12.297,18.609 7.293,0.614 13.711,-4.816 14.324,-12.121 0.617,-7.297 -4.804,-13.707 -12.109,-14.332" /><path
         id="path70"
         style="fill:#0a0a09;fill-opacity:1;fill-rule:nonzero;stroke:none"
         d="m 660.91,628.906 c -10.39,-6.008 -2.93,-16.82 4.668,-14.769 5.664,1.519 1.25,2.539 1.25,2.539 -7.441,-1.313 -12.851,6.332 -3.808,10.441 2.511,1.145 -2.11,1.789 -2.11,1.789" /><path
         id="path72"
         style="fill:#ffffff;fill-opacity:1;fill-rule:nonzero;stroke:none"
         d="m 581.77,527.105 c 2.843,-1.621 20.078,-17.167 24.335,-19.828 -2.507,-10.601 -19.363,-43.394 -23.074,-49.058 -0.441,19.539 -3.183,41.648 -13.918,41.719 l -2.019,7.925 14.676,19.242" /><path
         id="path74"
         style="fill:#0a0a09;fill-opacity:1;fill-rule:nonzero;stroke:none"
         d="m 512.434,216.203 c 0.859,5.922 -4.305,11.449 -7.95,6.781 -1.992,-2.543 -2.156,-7.226 -4.55,-9.64 -6.465,-6.531 -10.528,-7.766 -14.297,-11.785 -4.09,-4.336 -5.352,-7.168 -1.485,-12.969 0.325,-0.488 0.95,-6.406 5.207,-9.59 5.196,-3.906 12.625,0.191 20.477,10.02 1.75,2.183 1.426,5.293 1.828,7.773 1.024,6.348 -0.168,12.93 0.77,19.41" /><path
         id="path76"
         style="fill:#0a0a09;fill-opacity:1;fill-rule:nonzero;stroke:none"
         d="m 478.996,179.313 c -0.508,-16.184 -24.129,-22.661 -33.613,-17.266 -1.582,0.894 -6.602,5.391 -5.574,8.496 1.015,3.023 4.519,4.98 7.078,5.957 2.89,1.109 5.402,0.137 8.183,2.598 3.868,3.425 6.535,4.043 11.047,8.34 2.578,2.46 7.567,2.07 9.949,0.195 2.403,-1.899 3.868,-3.442 2.727,-7.988 0.359,0.64 0,0 0.203,-0.332" /><path
         id="path78"
         style="fill:#ffffff;fill-opacity:1;fill-rule:nonzero;stroke:none"
         d="m 505.441,203.527 c -10.066,-6.699 -22.265,-12.5 -10.73,-18.679 2.644,-1.414 10.027,3.82 11.863,9.914 -0.105,-0.356 -0.644,9.097 -1.133,8.765" /><path
         id="path80"
         style="fill:#ffffff;fill-opacity:1;fill-rule:nonzero;stroke:none"
         d="m 470.988,172.008 c -1.777,-1.457 -8.222,-4.731 -7.332,-4.238 -4.258,-2.383 -9.211,-3.711 -14.113,-2.911 -4.383,0.821 -2.578,4.586 -1.621,4.715 12.344,1.629 14.719,8.621 22.59,11.699 2.285,-0.554 2.742,-4.035 2.429,-5.039 -0.222,-0.75 -0.75,-2.761 -1.953,-4.226" /><path
         id="path82"
         style="fill:#0a0a09;fill-opacity:1;fill-rule:nonzero;stroke:none"
         d="m 378.285,318.473 c -3.097,-3.926 0.039,-4.543 -7.453,-11.797 -2.148,-2.09 -6.043,-3.598 -7.969,-6.289 -0.32,-0.449 -0.281,-2.231 -0.351,-3.535 4.765,-1.567 13.449,2.207 22.597,2.324 5.52,0.078 10.918,-1.738 16.496,-2.871 9.825,-2.012 18.895,0.136 30.711,0.781 14.172,0.777 16.887,-2.602 21.368,-2.094 8.761,0.996 14.101,5.332 10.324,4.242 0.926,0.274 -7.297,-0.8 -6.66,0.45 -2.434,0.425 -3.938,-0.903 -5.996,-1.133 -4.797,-0.559 -9.571,-0.278 -14.7,1.465 -7.39,2.476 -15.574,-1.196 -23.32,-1.203 -12.598,-0.032 -26.562,4.582 -42.266,2.96 -1.523,-0.16 12.844,11.461 11.758,10.118 4.18,5.156 5.051,12.246 5.891,9.937 -0.254,0.703 -4.152,4.613 -10.43,-3.355" /><path
         id="path84"
         style="fill:#0a0a09;fill-opacity:1;fill-rule:nonzero;stroke:none"
         d="m 395.199,278.063 c 10.789,0.898 31.004,-4.575 40.457,-1.157 -0.058,-0.972 7.942,2.5 7.735,-1.383 -0.282,-5.351 -13.328,-4.296 -16.778,-3.515 -9.402,2.129 -12.754,-0.84 -32.234,-0.254 -0.832,0.019 -9.836,-1.438 -12.395,5.523 -0.683,1.848 4.993,2.192 13.215,0.786" /><path
         id="path86"
         style="fill:#0a0a09;fill-opacity:1;fill-rule:nonzero;stroke:none"
         d="m 459.133,311.762 c -1.004,-2.508 1.562,-4.114 2.922,-2.782 1.062,1.036 0.867,3.868 -1.387,4.668 0.242,-1.269 -1.223,-1.117 -1.535,-1.886" /><path
         id="path88"
         style="fill:#0a0a09;fill-opacity:1;fill-rule:nonzero;stroke:none"
         d="m 454.906,316.93 c -0.988,0.625 -2.023,1.558 -2.89,1.773 -3.352,0.805 -6.047,2.656 -9.493,3.203 -0.851,0.141 -1.23,1.621 0.176,2.309 2.149,1.055 4.473,-0.039 6.668,-0.766 2.883,-0.957 3.321,-4.429 5.676,-5.867 0.691,-0.422 2.559,-0.676 2.039,-1.648 -0.516,-0.996 -2.449,-0.571 -2.664,1.011 0.164,0 0.332,-0.015 0.488,-0.015" /><path
         id="path90"
         style="fill:#ffffff;fill-opacity:1;fill-rule:nonzero;stroke:none"
         d="m 464.984,302.594 c 0.762,0 1.375,0.816 1.375,1.836 0,1.011 -0.613,1.836 -1.375,1.836 -0.761,0 -1.379,-0.825 -1.379,-1.836 0,-1.02 0.618,-1.836 1.379,-1.836" /><path
         id="path92"
         style="fill:#ffffff;fill-opacity:1;fill-rule:nonzero;stroke:none"
         d="m 679.184,701.844 c 7.605,-5.184 13.789,-8.164 19.746,-8.164 4.082,0 6.289,1.55 6.289,4.082 0,3.644 -3.977,4.082 -10.481,5.519 -13.465,2.867 -20.3,10.262 -20.3,21.739 0,16.543 12.91,28.679 32.988,28.679 9.043,0 17.539,-2.316 26.59,-7.172 l -8.614,-20.629 c -5.515,4.082 -11.25,6.18 -16.211,6.18 -3.972,0 -6.179,-1.433 -6.179,-3.754 0,-3.863 5.293,-4.41 14.676,-6.508 10.48,-2.316 17.539,-10.152 17.539,-21.183 0,-16.879 -13.457,-29.676 -34.09,-29.676 -10.371,0 -20.852,2.977 -31.008,8.828 l 9.055,22.059" /><path
         id="path94"
         style="fill:#ffffff;fill-opacity:1;fill-rule:nonzero;stroke:none"
         d="m 145.578,716.191 h 4.414 c 5.41,0 8.391,2.754 8.391,7.606 0,4.859 -2.871,7.84 -8.391,7.84 h -4.414 z m -27.801,35.743 h 35.633 c 21.074,0 31.887,-9.707 31.887,-26.586 0,-11.258 -6.067,-19.09 -15.227,-20.192 l 21.075,-32.105 h -31.778 l -13.789,26.039 v -26.039 h -27.801 v 78.883" /><path
         id="path96"
         style="fill:#ffffff;fill-opacity:1;fill-rule:nonzero;stroke:none"
         d="m 261.254,702.383 -2.422,8.937 c -1.105,4.196 -2.766,9.715 -3.203,17.321 h -0.547 c -0.449,-7.606 -2.102,-13.125 -3.203,-17.321 l -2.434,-8.937 z m -21.289,50.203 h 31.551 l 27.578,-78.887 h -30.449 l -2.54,9.934 h -21.394 l -2.434,-9.934 h -30.449 l 28.137,78.887" /><path
         id="path98"
         style="fill:#ffffff;fill-opacity:1;fill-rule:nonzero;stroke:none"
         d="m 324.457,751.934 h 28.797 v -78.883 h -28.797 v 78.883" /><path
         id="path100"
         style="fill:#ffffff;fill-opacity:1;fill-rule:nonzero;stroke:none"
         d="m 429.23,712.441 c 0,10.372 -5.742,15.223 -17.214,15.223 -0.442,0 -0.774,0 -1.211,0 v -30.566 c 12.578,0.226 18.425,4.64 18.425,15.343 z m -42.742,39.493 h 22.95 c 13.671,0 23.933,-1.325 31.218,-4.961 13.567,-6.848 21.184,-19.532 21.184,-34.532 0,-13.023 -5.852,-24.386 -16.328,-31.554 -10.266,-7.067 -22.403,-7.836 -38.176,-7.836 h -20.848 v 78.883" /><path
         id="path102"
         style="fill:#ffffff;fill-opacity:1;fill-rule:nonzero;stroke:none"
         d="m 488.695,751.934 h 52.735 v -21.407 h -24.934 v -7.609 h 22.617 V 702.73 h -22.617 v -8.277 h 25.598 v -21.402 h -53.399 v 78.883" /><path
         id="path104"
         style="fill:#ffffff;fill-opacity:1;fill-rule:nonzero;stroke:none"
         d="m 601.809,716.191 h 4.414 c 5.41,0 8.39,2.754 8.39,7.606 0,4.859 -2.871,7.84 -8.39,7.84 h -4.414 z m -27.801,35.743 h 35.633 c 21.074,0 31.886,-9.707 31.886,-26.586 0,-11.258 -6.066,-19.09 -15.226,-20.192 l 21.074,-32.105 h -31.766 l -13.8,26.039 v -26.039 h -27.801 v 78.883" /></g></g></svg>